<svg width="1097" height="545" viewBox="0 0 1097 545" fill="none" xmlns="http://www.w3.org/2000/svg">
<g clip-path="url(#clip0)">
<g filter="url(#filter0_d)">
<path d="M840.469 0H256.531C114.853 0 0 122.002 0 272.5C0 422.998 114.853 545 256.531 545H840.469C982.147 545 1097 422.998 1097 272.5C1097 122.002 982.147 0 840.469 0Z" fill="url(#paint0_linear)"/>
</g>
<path d="M810.322 24H286.678C159.278 24 56 134.248 56 270.246V274.754C56 410.752 159.278 521 286.678 521H810.322C937.722 521 1041 410.752 1041 274.754V270.246C1041 134.248 937.722 24 810.322 24Z" fill="url(#paint1_linear)"/>
<g filter="url(#filter1_i)">
<path d="M810.32 38.2062H285.622C164.1 38.2062 65.5873 142.852 65.5873 271.938C65.5873 401.025 164.1 505.67 285.622 505.67H810.32C931.842 505.67 1030.35 401.025 1030.35 271.938C1030.35 142.852 931.842 38.2062 810.32 38.2062Z" fill="url(#paint2_linear)"/>
</g>
<path d="M795.854 79H301.146C201.102 79 120 165.409 120 272C120 378.591 201.102 465 301.146 465H795.854C895.898 465 977 378.591 977 272C977 165.409 895.898 79 795.854 79Z" stroke="#6297B5" stroke-width="2"/>
<g opacity="0.5">
</g>
</g>
<defs>
<filter id="filter0_d" x="-40" y="-30" width="1157" height="605" filterUnits="userSpaceOnUse" color-interpolation-filters="sRGB">
<feFlood flood-opacity="0" result="BackgroundImageFix"/>
<feColorMatrix in="SourceAlpha" type="matrix" values="0 0 0 0 0 0 0 0 0 0 0 0 0 0 0 0 0 0 127 0"/>
<feOffset dx="-10"/>
<feGaussianBlur stdDeviation="15"/>
<feColorMatrix type="matrix" values="0 0 0 0 0 0 0 0 0 0 0 0 0 0 0 0 0 0 0.1 0"/>
<feBlend mode="normal" in2="BackgroundImageFix" result="effect1_dropShadow"/>
<feBlend mode="normal" in="SourceGraphic" in2="effect1_dropShadow" result="shape"/>
</filter>
<filter id="filter1_i" x="65.5873" y="33.2062" width="969.768" height="472.464" filterUnits="userSpaceOnUse" color-interpolation-filters="sRGB">
<feFlood flood-opacity="0" result="BackgroundImageFix"/>
<feBlend mode="normal" in="SourceGraphic" in2="BackgroundImageFix" result="shape"/>
<feColorMatrix in="SourceAlpha" type="matrix" values="0 0 0 0 0 0 0 0 0 0 0 0 0 0 0 0 0 0 127 0" result="hardAlpha"/>
<feOffset dx="5" dy="-5"/>
<feGaussianBlur stdDeviation="5"/>
<feComposite in2="hardAlpha" operator="arithmetic" k2="-1" k3="1"/>
<feColorMatrix type="matrix" values="0 0 0 0 0 0 0 0 0 0 0 0 0 0 0 0 0 0 0.3 0"/>
<feBlend mode="normal" in2="shape" result="effect1_innerShadow"/>
</filter>
<linearGradient id="paint0_linear" x1="940.677" y1="144.425" x2="276.338" y2="386.402" gradientUnits="userSpaceOnUse">
<stop stop-color="#245069"/>
<stop offset="1" stop-color="#6297B5"/>
</linearGradient>
<linearGradient id="paint1_linear" x1="-63.8258" y1="530.579" x2="1206.88" y2="10.5508" gradientUnits="userSpaceOnUse">
<stop stop-color="#B59162"/>
<stop offset="1" stop-color="#5B2D1D"/>
</linearGradient>
<linearGradient id="paint2_linear" x1="28.0333" y1="505.67" x2="1063.74" y2="48.6629" gradientUnits="userSpaceOnUse">
<stop stop-color="#DCC291"/>
<stop offset="1" stop-color="#B59162"/>
</linearGradient>
<clipPath id="clip0">
<rect width="1097" height="545" fill="white"/>
</clipPath>
</defs>
</svg>
